<svg width="1230" height="238" viewBox="0 0 1230 238" fill="none" xmlns="http://www.w3.org/2000/svg">
<path d="M65.828 105.584C65.828 110.564 65.0533 114.382 63.504 117.038C61.9547 119.583 59.4647 121.409 56.034 122.516C59.4647 123.623 61.9547 125.504 63.504 128.16C65.0533 130.705 65.828 134.468 65.828 139.448V170.988C65.828 175.083 66.824 178.181 68.816 180.284C70.9187 182.497 74.0173 183.604 78.112 183.604H81.598V200.204H73.298C64.002 200.204 56.9747 197.88 52.216 193.232C47.4573 188.695 45.078 181.999 45.078 173.146V138.95C45.078 133.638 42.588 130.982 37.608 130.982H32.13V114.05H37.608C42.588 114.05 45.078 111.394 45.078 106.082V71.886C45.078 63.0327 47.4573 56.3373 52.216 51.8C56.9747 47.152 64.002 44.828 73.298 44.828H81.598V61.428H78.112C74.0173 61.428 70.9187 62.5347 68.816 64.748C66.824 66.8507 65.828 69.9493 65.828 74.044V105.584Z" fill="#303F55"/>
<path d="M182.772 114.05V130.982H177.128C174.804 130.982 172.978 131.646 171.65 132.974C170.433 134.302 169.824 136.294 169.824 138.95V173.146C169.824 181.999 167.39 188.695 162.52 193.232C157.762 197.88 150.734 200.204 141.438 200.204H133.138V183.604H136.624C140.83 183.604 143.928 182.497 145.92 180.284C148.023 178.181 149.074 175.083 149.074 170.988V139.448C149.074 134.357 149.794 130.539 151.232 127.994C152.782 125.449 155.272 123.623 158.702 122.516C155.272 121.409 152.782 119.583 151.232 117.038C149.794 114.493 149.074 110.675 149.074 105.584V74.044C149.074 69.9493 148.023 66.8507 145.92 64.748C143.928 62.5347 140.83 61.428 136.624 61.428H133.138V44.828H141.438C150.734 44.828 157.762 47.152 162.52 51.8C167.39 56.3373 169.824 63.0327 169.824 71.886V106.082C169.824 108.738 170.433 110.73 171.65 112.058C172.978 113.386 174.804 114.05 177.128 114.05H182.772Z" fill="#303F55"/>
<path d="M292.076 185.82C279.215 185.82 267.567 183.029 257.132 177.448C246.819 171.745 238.689 163.919 232.744 153.97C226.92 144.021 224.008 132.797 224.008 120.3C224.008 107.803 226.981 96.5793 232.926 86.63C238.871 76.6807 247.001 68.9153 257.314 63.334C267.749 57.6313 279.397 54.78 292.258 54.78C302.693 54.78 312.217 56.6 320.832 60.24C329.447 63.88 336.727 69.158 342.672 76.074L327.384 90.452C318.163 80.5027 306.818 75.528 293.35 75.528C284.614 75.528 276.788 77.4693 269.872 81.352C262.956 85.1133 257.557 90.3913 253.674 97.186C249.791 103.981 247.85 111.685 247.85 120.3C247.85 128.915 249.791 136.619 253.674 143.414C257.557 150.209 262.956 155.547 269.872 159.43C276.788 163.191 284.614 165.072 293.35 165.072C306.818 165.072 318.163 160.037 327.384 149.966L342.672 164.526C336.727 171.442 329.386 176.72 320.65 180.36C312.035 184 302.511 185.82 292.076 185.82Z" fill="#117DCC"/>
<path d="M384.816 101.008C391.368 90.816 402.895 85.72 419.396 85.72V107.378C417.455 107.014 415.696 106.832 414.118 106.832C405.261 106.832 398.345 109.441 393.37 114.658C388.396 119.754 385.908 127.155 385.908 136.862V184H363.158V86.812H384.816V101.008Z" fill="#117DCC"/>
<path d="M533.678 86.812V184H512.02V171.624C508.38 175.992 503.83 179.389 498.37 181.816C492.91 184.121 487.025 185.274 480.716 185.274C467.733 185.274 457.481 181.695 449.958 174.536C442.557 167.256 438.856 156.518 438.856 142.322V86.812H461.606V139.228C461.606 147.964 463.548 154.516 467.43 158.884C471.434 163.131 477.076 165.254 484.356 165.254C492.486 165.254 498.916 162.767 503.648 157.792C508.501 152.696 510.928 145.416 510.928 135.952V86.812H533.678Z" fill="#117DCC"/>
<path d="M608.055 185.274C597.984 185.274 588.945 183.151 580.937 178.904C572.929 174.657 566.68 168.773 562.191 161.25C557.702 153.606 555.457 144.991 555.457 135.406C555.457 125.821 557.702 117.267 562.191 109.744C566.68 102.221 572.868 96.3367 580.755 92.09C588.763 87.8433 597.863 85.72 608.055 85.72C617.64 85.72 626.012 87.6613 633.171 91.544C640.451 95.4267 645.911 101.008 649.551 108.288L632.079 118.48C629.288 113.991 625.77 110.654 621.523 108.47C617.398 106.165 612.848 105.012 607.873 105.012C599.38 105.012 592.342 107.803 586.761 113.384C581.18 118.844 578.389 126.185 578.389 135.406C578.389 144.627 581.119 152.029 586.579 157.61C592.16 163.07 599.258 165.8 607.873 165.8C612.848 165.8 617.398 164.708 621.523 162.524C625.77 160.219 629.288 156.821 632.079 152.332L649.551 162.524C645.79 169.804 640.269 175.446 632.989 179.45C625.83 183.333 617.519 185.274 608.055 185.274Z" fill="#117DCC"/>
<path d="M669.217 86.812H691.967V184H669.217V86.812ZM680.683 70.796C676.558 70.796 673.1 69.522 670.309 66.974C667.518 64.3047 666.123 61.0287 666.123 57.146C666.123 53.2633 667.518 50.048 670.309 47.5C673.1 44.8307 676.558 43.496 680.683 43.496C684.808 43.496 688.266 44.77 691.057 47.318C693.848 49.7447 695.243 52.8387 695.243 56.6C695.243 60.604 693.848 64.0013 691.057 66.792C688.388 69.4613 684.93 70.796 680.683 70.796Z" fill="#117DCC"/>
<path d="M758.954 85.72C773.272 85.72 784.192 89.178 791.714 96.094C799.358 102.889 803.18 113.202 803.18 127.034V184H781.704V172.17C778.914 176.417 774.91 179.693 769.692 181.998C764.596 184.182 758.408 185.274 751.128 185.274C743.848 185.274 737.478 184.061 732.018 181.634C726.558 179.086 722.312 175.628 719.278 171.26C716.366 166.771 714.91 161.735 714.91 156.154C714.91 147.418 718.126 140.441 724.556 135.224C731.108 129.885 741.361 127.216 755.314 127.216H780.43V125.76C780.43 118.965 778.368 113.748 774.242 110.108C770.238 106.468 764.232 104.648 756.224 104.648C750.764 104.648 745.365 105.497 740.026 107.196C734.809 108.895 730.38 111.261 726.74 114.294L717.822 97.732C722.918 93.8493 729.046 90.8767 736.204 88.814C743.363 86.7513 750.946 85.72 758.954 85.72ZM755.86 168.712C761.563 168.712 766.598 167.438 770.966 164.89C775.456 162.221 778.61 158.459 780.43 153.606V142.322H756.952C743.848 142.322 737.296 146.629 737.296 155.244C737.296 159.369 738.934 162.645 742.21 165.072C745.486 167.499 750.036 168.712 755.86 168.712Z" fill="#117DCC"/>
<path d="M832.377 48.956H855.127V184H832.377V48.956Z" fill="#117DCC"/>
<path d="M892.266 185.274C888.141 185.274 884.623 183.879 881.711 181.088C878.799 178.176 877.343 174.536 877.343 170.168C877.343 165.679 878.738 162.039 881.529 159.248C884.441 156.457 888.02 155.062 892.266 155.062C896.513 155.062 900.032 156.457 902.823 159.248C905.735 162.039 907.19 165.679 907.19 170.168C907.19 174.536 905.735 178.176 902.823 181.088C899.911 183.879 896.392 185.274 892.266 185.274Z" fill="#117DCC"/>
<path d="M972.233 185.274C962.162 185.274 953.123 183.151 945.115 178.904C937.107 174.657 930.858 168.773 926.369 161.25C921.879 153.606 919.635 144.991 919.635 135.406C919.635 125.821 921.879 117.267 926.369 109.744C930.858 102.221 937.046 96.3367 944.933 92.09C952.941 87.8433 962.041 85.72 972.233 85.72C981.818 85.72 990.19 87.6613 997.349 91.544C1004.63 95.4267 1010.09 101.008 1013.73 108.288L996.257 118.48C993.466 113.991 989.947 110.654 985.701 108.47C981.575 106.165 977.025 105.012 972.051 105.012C963.557 105.012 956.52 107.803 950.939 113.384C945.357 118.844 942.567 126.185 942.567 135.406C942.567 144.627 945.297 152.029 950.757 157.61C956.338 163.07 963.436 165.8 972.051 165.8C977.025 165.8 981.575 164.708 985.701 162.524C989.947 160.219 993.466 156.821 996.257 152.332L1013.73 162.524C1009.97 169.804 1004.45 175.446 997.167 179.45C990.008 183.333 981.697 185.274 972.233 185.274Z" fill="#117DCC"/>
<path d="M1063.42 185.274C1055.54 185.274 1047.83 184.243 1040.31 182.18C1032.79 180.117 1026.78 177.509 1022.29 174.354L1031.03 157.064C1035.4 159.976 1040.61 162.342 1046.68 164.162C1052.87 165.861 1058.94 166.71 1064.88 166.71C1078.47 166.71 1085.26 163.131 1085.26 155.972C1085.26 152.575 1083.51 150.209 1079.99 148.874C1076.59 147.539 1071.07 146.265 1063.42 145.052C1055.42 143.839 1048.86 142.443 1043.77 140.866C1038.79 139.289 1034.43 136.559 1030.66 132.676C1027.02 128.672 1025.2 123.151 1025.2 116.114C1025.2 106.893 1029.03 99.552 1036.67 94.092C1044.44 88.5107 1054.87 85.72 1067.97 85.72C1074.65 85.72 1081.32 86.5087 1087.99 88.086C1094.67 89.542 1100.13 91.544 1104.37 94.092L1095.64 111.382C1087.39 106.529 1078.11 104.102 1067.79 104.102C1061.12 104.102 1056.02 105.133 1052.5 107.196C1049.11 109.137 1047.41 111.746 1047.41 115.022C1047.41 118.662 1049.23 121.271 1052.87 122.848C1056.63 124.304 1062.39 125.699 1070.16 127.034C1077.92 128.247 1084.29 129.643 1089.27 131.22C1094.24 132.797 1098.49 135.467 1102.01 139.228C1105.65 142.989 1107.47 148.328 1107.47 155.244C1107.47 164.344 1103.53 171.624 1095.64 177.084C1087.75 182.544 1077.01 185.274 1063.42 185.274Z" fill="#117DCC"/>
<path d="M1157.09 185.274C1149.2 185.274 1141.5 184.243 1133.98 182.18C1126.45 180.117 1120.45 177.509 1115.96 174.354L1124.69 157.064C1129.06 159.976 1134.28 162.342 1140.35 164.162C1146.53 165.861 1152.6 166.71 1158.55 166.71C1172.14 166.71 1178.93 163.131 1178.93 155.972C1178.93 152.575 1177.17 150.209 1173.65 148.874C1170.26 147.539 1164.73 146.265 1157.09 145.052C1149.08 143.839 1142.53 142.443 1137.43 140.866C1132.46 139.289 1128.09 136.559 1124.33 132.676C1120.69 128.672 1118.87 123.151 1118.87 116.114C1118.87 106.893 1122.69 99.552 1130.34 94.092C1138.1 88.5107 1148.54 85.72 1161.64 85.72C1168.31 85.72 1174.99 86.5087 1181.66 88.086C1188.33 89.542 1193.79 91.544 1198.04 94.092L1189.3 111.382C1181.05 106.529 1171.77 104.102 1161.46 104.102C1154.79 104.102 1149.69 105.133 1146.17 107.196C1142.77 109.137 1141.07 111.746 1141.07 115.022C1141.07 118.662 1142.89 121.271 1146.53 122.848C1150.3 124.304 1156.06 125.699 1163.82 127.034C1171.59 128.247 1177.96 129.643 1182.93 131.22C1187.91 132.797 1192.16 135.467 1195.67 139.228C1199.31 142.989 1201.13 148.328 1201.13 155.244C1201.13 164.344 1197.19 171.624 1189.3 177.084C1181.42 182.544 1170.68 185.274 1157.09 185.274Z" fill="#117DCC"/>
</svg>
